# xmcd
#
# Track frame offsets:
#	150
#	8007
#	23432
#	39301
#	59307
#	69301
#	83991
#	102415
#	116111
#	130594
#	144522
#	158423
#	172044
#	187308
#	203424
#	218631
#	233767
#	248116
#	261487
#	274620
#
# Disc length: 3831 seconds
#
# Revision: 1
# Processed by: cddbd v1.5.2PL0 Copyright (c) Steve Scherf et al.
# Submitted via: audiograbber 1.83.01
#
DISCID=0d0ef514
DTITLE=Petra Kusch Lueck - Musikanten Scheune 3 CD1
DYEAR=2001
DGENRE=
TTITLE0=Petra Kusch Lueck - Musikantenscheune Lied
TTITLE1=Stefanie Hertel mit Stefan Mross und Eberhart Hertel - Mach ein Fest au
TTITLE1=s deinem Leben
TTITLE2=Francine Jordi - Wunschlos gluecklich
TTITLE3=Fernando Express - Die weissen Segel von Santa Monica
TTITLE4=Florian Silbereisen - Was ist los,was ist g'scheh'n
TTITLE5=G.G. Anderson - Nein heisst ja
TTITLE6=Heino - Blau blueht der Enzian
TTITLE7=Florian Silbereisen - Der Baer ist los
TTITLE8=Die Schaefer - Du passt genau in meine Traeume
TTITLE9=Muehlenhof Musikanten - Die klitzekleinen Dinge
TTITLE10=Edith Proch - Glaube an den Regenbogen
TTITLE11=Die Murztaler - Musik an die Macht
TTITLE12=Gaby Albrecht - Bis wir uns wiedersehen
TTITLE13=Andreas - Die schoensten Sachen
TTITLE14=Angela Wiedl - Du bist da
TTITLE15=Bergfeuer - Tausendbergeland
TTITLE16=Margitta and ihre Tochter - Du ich hab dich lieb
TTITLE17=Eva Maria - Manche Maedchen machen muede Maenner munter
TTITLE18=Alpenrebellen - Heuhupfen
TTITLE19=Judith and Mel - Die goldenen Jahre
EXTD=
EXTT0=
EXTT1=
EXTT2=
EXTT3=
EXTT4=
EXTT5=
EXTT6=
EXTT7=
EXTT8=
EXTT9=
EXTT10=
EXTT11=
EXTT12=
EXTT13=
EXTT14=
EXTT15=
EXTT16=
EXTT17=
EXTT18=
EXTT19=
PLAYORDER=
